# xmcd CD database file
#
# Track frame offsets:
#	150
#	23212
#	37537
#	53565
#	73427
#	99081
#	119731
#	134011
#	148879
#	163304
#	181964
#	198182
#	213099
#	230157
#
# Disc length: 3218 seconds
#
# Revision: 0
# Processed by: cddbd v1.5PL3 Copyright (c) Steve Scherf et al.
# Submitted via: CDex 1.50
#
DISCID=ce0c900e
DTITLE=Louisiana All Stars Jazzband - ...and back to New Orleans
DYEAR=2004
DGENRE=Jazz
TTITLE0=Bourbon Street Parade (Traditional)
TTITLE1=When it's sleepy Time down South (Rene/Rene/Muse)
TTITLE2=Cornet Shop Suey (L. Armstrong)
TTITLE3=Everybody loves Saturday Night (Traditional)
TTITLE4=Rent Party Blues (D. Ellington)
TTITLE5=Puttin' on the Ritz (E. Berlin)
TTITLE6=Please don't talk about me (Traditional)
TTITLE7=You're bound to look like a Monkey (Traditional)
TTITLE8=Stevedore Stomp (D. Ellington)
TTITLE9=Black Molasses (Traditional)
TTITLE10=Potatoe Head Blues (L. Armstrong)
TTITLE11=Harlem Bound (P. Johnson)
TTITLE12=Flat Foot Floogee (Gaillard/Stewart/Green)
TTITLE13=I've found a new Baby (Palmer/Williams)
EXTD=YEAR: 2004
EXTT0=
EXTT1=
EXTT2=
EXTT3=
EXTT4=
EXTT5=
EXTT6=
EXTT7=
EXTT8=
EXTT9=
EXTT10=
EXTT11=
EXTT12=
EXTT13=
PLAYORDER=
